# xmcd
#
# Track frame offsets:
#	150
#	13109
#	29756
#	48769
#	63639
#	77429
#	96002
#	114832
#	130488
#	146516
#
# Disc length: 2157 seconds
#
# Revision: 0
# Processed by: cddbd v1.5.2PL0 Copyright (c) Steve Scherf et al.
# Submitted via: dBpowerAMP V4.0
#
DISCID=80086b0a
DTITLE=Lonestar - Super Hits
DYEAR=2007
DGENRE=Country
TTITLE0=No News
TTITLE1=Come Cryin' To Me
TTITLE2=I'm Already There
TTITLE3=You're Like Comin' Home
TTITLE4=Doghouse
TTITLE5=Softly
TTITLE6=Don't Forget Me
TTITLE7=Mr. Mom
TTITLE8=Smile
TTITLE9=Tequila Talkin'
EXTD=
EXTT0=
EXTT1=
EXTT2=
EXTT3=
EXTT4=
EXTT5=
EXTT6=
EXTT7=
EXTT8=
EXTT9=
PLAYORDER=
